<svg xmlns="http://www.w3.org/2000/svg" viewBox="0 0 36.84 29.57"><defs><style>.cls-1{fill:#fff;}</style></defs><g id="Ebene_2" data-name="Ebene 2"><g id="Ebene_1-2" data-name="Ebene 1"><path class="cls-1" d="M0,22.37a1.18,1.18,0,0,0,1.15,1.15H14.63a6.66,6.66,0,0,1,13.18,0h4.75c.15,0,4.28-.62,4.28-4.37V4.52A5,5,0,0,0,31.71,0H17.62c-.16,0-.23,0-.31.08L6.43,10.8c0,.08-.07.23-.07.31V21.22H1.23A1.24,1.24,0,0,0,0,22.37ZM27.27,11.72v-7h4.37v7.05Zm-13.94,0,6.82-7h2.29v7.05Z"></path><path class="cls-1" d="M16.09,24.44a5.13,5.13,0,1,0,5.13-5.14A5.13,5.13,0,0,0,16.09,24.44Z"></path></g></g></svg>