<svg xmlns="http://www.w3.org/2000/svg" viewBox="0 0 30.1 19.55"><defs><style>.cls-1{fill:#fff;}</style></defs><g id="Ebene_2" data-name="Ebene 2"><g id="Ebene_1-2" data-name="Ebene 1"><path class="cls-1" d="M7.07,13.38a3,3,0,0,1,1.81,2.76H22.7a3,3,0,0,1,1.16-2.76Z"></path><path class="cls-1" d="M0,13.38v2.79H2.83a3,3,0,0,1,1.81-2.75Z"></path><rect class="cls-1" x="10.55" width="19.55" height="12.11"></rect><polygon class="cls-1" points="0 9.46 0 13.38 9.32 13.38 9.32 2.21 3.84 2.21 2.87 4.1 6.27 4.1 6.27 9.17 0.14 9.17 0 9.46"></polygon><path class="cls-1" d="M25.9,19a3.37,3.37,0,1,0-3.37-3.37h0A3.35,3.35,0,0,0,25.88,19Zm0-6a2.65,2.65,0,1,1-2.65,2.65h0A2.67,2.67,0,0,1,25.9,13Z"></path><circle class="cls-1" cx="25.89" cy="15.63" r="1.6"></circle><path class="cls-1" d="M5.87,19.55A3.38,3.38,0,1,0,2.5,16.17a3.38,3.38,0,0,0,3.37,3.38Zm0-6.06a2.64,2.64,0,0,1,2.65,2.63v0a2.67,2.67,0,0,1-5.33,0h0A2.67,2.67,0,0,1,5.87,13.49Z"></path><circle class="cls-1" cx="5.87" cy="16.17" r="1.6"></circle></g></g></svg>