<svg xmlns="http://www.w3.org/2000/svg" viewBox="0 0 19.71 16.22"><defs><style>.cls-1{fill:#fff;}</style></defs><g id="Ebene_2" data-name="Ebene 2"><g id="Ebene_1-2" data-name="Ebene 1"><path class="cls-1" d="M16.64,10.09a3.07,3.07,0,1,1-3.06,3.07A3.08,3.08,0,0,1,16.64,10.09Zm-1.79,3.07a1.79,1.79,0,1,0,1.79-1.79A1.79,1.79,0,0,0,14.85,13.16ZM0,13.16a3.07,3.07,0,1,0,3.07-3.07A3.06,3.06,0,0,0,0,13.16Zm3.07-1.79a1.79,1.79,0,1,1-1.8,1.79A1.78,1.78,0,0,1,3.07,11.37ZM6.83,13.1a3.33,3.33,0,0,1-.14,1H13a3.33,3.33,0,0,1-.14-1,3.76,3.76,0,0,1,3.76-3.76,3.91,3.91,0,0,1,1.51.31L17.74,8,14,8.36a1.33,1.33,0,0,0,.2-.74,2.42,2.42,0,0,0-.54-1.37,4.16,4.16,0,0,1-2.52,1.29c-.38.2-.84.4-1.3.6H7.74a.32.32,0,0,0-.32.32v.08L6.83,7.46a7.43,7.43,0,0,0,1.41-.85c.42-.36,1-.94,1.43-1.41.5.55,1,1.17,1.46,1.69h0a3.56,3.56,0,0,0,2.21-1.18c-.18-.24-.4-.49-.66-.81-.68-.8-1.33-1.52-1.35-1.54A1.28,1.28,0,0,0,9.57,3.3,31.21,31.21,0,0,1,7.42,5.63a7.45,7.45,0,0,1-1.27.76l-.48-.78s-3.38.88-3.38,2.55a2.89,2.89,0,0,0,.46,1.22v0a1.62,1.62,0,0,1,.32,0A3.76,3.76,0,0,1,6.83,13.1ZM10.35,2.51a2.59,2.59,0,0,0,.22-1.06A1.52,1.52,0,0,0,8.88,0,1.79,1.79,0,0,0,7.25,1.29h.08s0,.12,0,.12.68,0,.68,0,.14,0,.14.18,0,.46,0,.46,0,.14-.1.18-.62.18-.62.18a.29.29,0,0,1-.17-.14l0-.1a.1.1,0,0,0-.1.1,2.68,2.68,0,0,0,0,.4l-.06,0a1.46,1.46,0,0,0,.37.83Z"></path></g></g></svg>