<svg xmlns="http://www.w3.org/2000/svg" viewBox="0 0 59.23 27.5"><defs><style>.cls-1{fill:#fff;}</style></defs><g id="Ebene_2" data-name="Ebene 2"><g id="Ebene_1-2" data-name="Ebene 1"><path class="cls-1" d="M0,14.5v6.65L3.93,22.3A7.56,7.56,0,0,1,19,22.36H40.19A7.56,7.56,0,0,1,55.3,22.3l3.93-1.15V10.27C59.23,7.86,49.56,0,40.49,0H29.61C24.78,0,16.32,7.86,16.32,7.86,6,9.07,0,12.09,0,14.5ZM37.47,3.63h3c4.17,0,8.71,2.17,11.73,4.29L37.47,8.4ZM20.49,9c3.38-2.85,7.37-5.38,9.12-5.38h4.23V8.52Z"></path><circle class="cls-1" cx="47.75" cy="22.36" r="5.14"></circle><circle class="cls-1" cx="11.48" cy="22.36" r="5.14"></circle></g></g></svg>