<svg xmlns="http://www.w3.org/2000/svg" viewBox="0 0 18.07 15.2"><defs><style>.cls-1{fill:#fff;}</style></defs><g id="Ebene_2" data-name="Ebene 2"><g id="Ebene_1-2" data-name="Ebene 1"><path class="cls-1" d="M9.82,11.09A4.12,4.12,0,1,0,13.94,7,4.12,4.12,0,0,0,9.82,11.09Zm2.63,0a1.49,1.49,0,1,1,1.49,1.49A1.48,1.48,0,0,1,12.45,11.07Z"></path><path class="cls-1" d="M0,12.27a2.92,2.92,0,0,0,5.83,0c0-.09,0-.17,0-.25H8.58a.39.39,0,0,0,.31-.13A.37.37,0,0,0,9,11.58a2.55,2.55,0,0,1,0-.39A5.07,5.07,0,0,1,14,6.12,5.16,5.16,0,0,1,17.4,7.38a.4.4,0,0,0,.57,0,.41.41,0,0,0,0-.58,6,6,0,0,0-1.28-.84L15.1,0H9.47L7.61,5.4s-1,0-2.11.12V3.27A1.18,1.18,0,0,0,4.32,2.09a.42.42,0,0,0,0,.83.34.34,0,0,1,.35.35V5.61c-1.32.16-2.62.43-2.89.88a7.88,7.88,0,0,0-.33,3.27A2.9,2.9,0,0,0,0,12.27Zm9.39-7.8L10.63,1.1H14l.87,3.37Zm-7.55,7.8A1.06,1.06,0,1,1,2.9,13.32,1.07,1.07,0,0,1,1.84,12.27Z"></path></g></g></svg>